HIERARCHY
ROOT Root
{
  OFFSET 0.0 0.0 0.0
  CHANNELS 6 Xposition Yposition Zposition Zrotation Yrotation Xrotation
  JOINT Hips
  {
    OFFSET 0.0 100.0 0.0
    CHANNELS 6 Xposition Yposition Zposition Zrotation Yrotation Xrotation
    JOINT Spine1
    {
      OFFSET 5.003913 -0.037094 -0.013727
      CHANNELS 3 Zrotation Yrotation Xrotation
      JOINT Spine2
      {
        OFFSET 7.125363 -1e-06 0.0
        CHANNELS 3 Zrotation Yrotation Xrotation
        JOINT Chest
        {
          OFFSET 7.594027 1e-06 0.0
          CHANNELS 3 Zrotation Yrotation Xrotation
          JOINT Neck1
          {
            OFFSET 26.313086 -0.460272 -0.181672
            CHANNELS 3 Zrotation Yrotation Xrotation
            JOINT Neck2
            {
              OFFSET 8.045911 0.0 0.0
              CHANNELS 3 Zrotation Yrotation Xrotation
              JOINT Head
              {
                OFFSET 6.432774 0.0 0.0
                CHANNELS 3 Zrotation Yrotation Xrotation
                JOINT HeadEnd
                {
                  OFFSET 16.169773 0.06451 0.00362
                  CHANNELS 3 Zrotation Yrotation Xrotation
                }
                JOINT Jaw
                {
                  OFFSET 0.108741 3.12938 0.002639
                  CHANNELS 3 Zrotation Yrotation Xrotation
                }
                JOINT LeftEye
                {
                  OFFSET 4.45173 8.166359 3.206392
                  CHANNELS 3 Zrotation Yrotation Xrotation
                }
                JOINT RightEye
                {
                  OFFSET 4.436895 8.135758 -3.222429
                  CHANNELS 3 Zrotation Yrotation Xrotation
                }
              }
            }
          }
          JOINT LeftShoulder
          {
            OFFSET 23.218927 5.195579 1.621656
            CHANNELS 3 Zrotation Yrotation Xrotation
            JOINT LeftArm
            {
              OFFSET 15.902118 2e-06 -2e-06
              CHANNELS 3 Zrotation Yrotation Xrotation
              JOINT LeftForeArm
              {
                OFFSET 28.739307 0.0 -1e-06
                CHANNELS 3 Zrotation Yrotation Xrotation
                JOINT LeftHand
                {
                  OFFSET 27.093981 -4e-06 0.0
                  CHANNELS 3 Zrotation Yrotation Xrotation
                  JOINT LeftHandThumb1
                  {
                    OFFSET 2.276781 3.380274 0.83384
                    CHANNELS 3 Zrotation Yrotation Xrotation
                    JOINT LeftHandThumb2
                    {
                      OFFSET 4.705309 -1e-06 -1e-06
                      CHANNELS 3 Zrotation Yrotation Xrotation
                      JOINT LeftHandThumb3
                      {
                        OFFSET 2.798515 0.0 3e-06
                        CHANNELS 3 Zrotation Yrotation Xrotation
                        JOINT LeftHandThumbEnd
                        {
                          OFFSET 3.180793 4e-06 -4e-06
                          CHANNELS 3 Zrotation Yrotation Xrotation
                        }
                      }
                    }
                  }
                  JOINT LeftHandIndex1
                  {
                    OFFSET 3.247786 2.352677 0.137192
                    CHANNELS 3 Zrotation Yrotation Xrotation
                    JOINT LeftHandIndex2
                    {
                      OFFSET 6.367095 1e-06 0.0
                      CHANNELS 3 Zrotation Yrotation Xrotation
                      JOINT LeftHandIndex3
                      {
                        OFFSET 3.662364 0.0 0.0
                        CHANNELS 3 Zrotation Yrotation Xrotation
                        JOINT LeftHandIndex4
                        {
                          OFFSET 2.329242 4e-06 -4e-06
                          CHANNELS 3 Zrotation Yrotation Xrotation
                          JOINT LeftHandIndexEnd
                          {
                            OFFSET 2.767823 1e-06 0.0
                            CHANNELS 3 Zrotation Yrotation Xrotation
                          }
                        }
                      }
                    }
                  }
                  JOINT LeftHandMiddle1
                  {
                    OFFSET 3.163612 0.945023 -0.406112
                    CHANNELS 3 Zrotation Yrotation Xrotation
                    JOINT LeftHandMiddle2
                    {
                      OFFSET 6.276789 3e-06 0.0
                      CHANNELS 3 Zrotation Yrotation Xrotation
                      JOINT LeftHandMiddle3
                      {
                        OFFSET 4.35652 -1e-06 4e-06
                        CHANNELS 3 Zrotation Yrotation Xrotation
                        JOINT LeftHandMiddle4
                        {
                          OFFSET 2.996877 0.0 8e-06
                          CHANNELS 3 Zrotation Yrotation Xrotation
                          JOINT LeftHandMiddleEnd
                          {
                            OFFSET 2.323256 3e-06 -4e-06
                            CHANNELS 3 Zrotation Yrotation Xrotation
                          }
                        }
                      }
                    }
                  }
                  JOINT LeftHandRing1
                  {
                    OFFSET 2.882606 -0.309162 0.107445
                    CHANNELS 3 Zrotation Yrotation Xrotation
                    JOINT LeftHandRing2
                    {
                      OFFSET 6.033198 0.0 4e-06
                      CHANNELS 3 Zrotation Yrotation Xrotation
                      JOINT LeftHandRing3
                      {
                        OFFSET 4.350578 3e-06 0.0
                        CHANNELS 3 Zrotation Yrotation Xrotation
                        JOINT LeftHandRing4
                        {
                          OFFSET 2.651321 2e-06 -7e-06
                          CHANNELS 3 Zrotation Yrotation Xrotation
                          JOINT LeftHandRingEnd
                          {
                            OFFSET 1.937663 1e-06 -4e-06
                            CHANNELS 3 Zrotation Yrotation Xrotation
                          }
                        }
                      }
                    }
                  }
                  JOINT LeftHandPinky1
                  {
                    OFFSET 2.865315 -1.525436 0.575687
                    CHANNELS 3 Zrotation Yrotation Xrotation
                    JOINT LeftHandPinky2
                    {
                      OFFSET 5.54936 1e-06 -8e-06
                      CHANNELS 3 Zrotation Yrotation Xrotation
                      JOINT LeftHandPinky3
                      {
                        OFFSET 3.070974 0.0 -4e-06
                        CHANNELS 3 Zrotation Yrotation Xrotation
                        JOINT LeftHandPinky4
                        {
                          OFFSET 1.549672 1e-06 0.0
                          CHANNELS 3 Zrotation Yrotation Xrotation
                          JOINT LeftHandPinkyEnd
                          {
                            OFFSET 1.952123 0.0 0.0
                            CHANNELS 3 Zrotation Yrotation Xrotation
                          }
                        }
                      }
                    }
                  }
                }
              }
            }
          }
          JOINT RightShoulder
          {
            OFFSET 23.161716 5.296122 -1.380114
            CHANNELS 3 Zrotation Yrotation Xrotation
            JOINT RightArm
            {
              OFFSET -16.027195 -2e-06 1.1e-05
              CHANNELS 3 Zrotation Yrotation Xrotation
              JOINT RightForeArm
              {
                OFFSET -28.736639 4e-06 2e-06
                CHANNELS 3 Zrotation Yrotation Xrotation
                JOINT RightHand
                {
                  OFFSET -27.133619 6e-06 0.0
                  CHANNELS 3 Zrotation Yrotation Xrotation
                  JOINT RightHandThumb1
                  {
                    OFFSET -2.274328 -3.351035 -0.83067
                    CHANNELS 3 Zrotation Yrotation Xrotation
                    JOINT RightHandThumb2
                    {
                      OFFSET -4.703594 -3e-06 2e-06
                      CHANNELS 3 Zrotation Yrotation Xrotation
                      JOINT RightHandThumb3
                      {
                        OFFSET -2.794935 -4e-06 -3e-06
                        CHANNELS 3 Zrotation Yrotation Xrotation
                        JOINT RightHandThumbEnd
                        {
                          OFFSET -3.183852 4e-06 1e-06
                          CHANNELS 3 Zrotation Yrotation Xrotation
                        }
                      }
                    }
                  }
                  JOINT RightHandIndex1
                  {
                    OFFSET -3.253496 -2.33755 -0.127667
                    CHANNELS 3 Zrotation Yrotation Xrotation
                    JOINT RightHandIndex2
                    {
                      OFFSET -6.344434 0.0 0.0
                      CHANNELS 3 Zrotation Yrotation Xrotation
                      JOINT RightHandIndex3
                      {
                        OFFSET -3.654871 0.0 -8e-06
                        CHANNELS 3 Zrotation Yrotation Xrotation
                        JOINT RightHandIndex4
                        {
                          OFFSET -2.327586 -1e-06 0.0
                          CHANNELS 3 Zrotation Yrotation Xrotation
                          JOINT RightHandIndexEnd
                          {
                            OFFSET -2.770001 3e-06 8e-06
                            CHANNELS 3 Zrotation Yrotation Xrotation
                          }
                        }
                      }
                    }
                  }
                  JOINT RightHandMiddle1
                  {
                    OFFSET -3.168223 -0.944764 0.411762
                    CHANNELS 3 Zrotation Yrotation Xrotation
                    JOINT RightHandMiddle2
                    {
                      OFFSET -6.266691 -1e-06 -4e-06
                      CHANNELS 3 Zrotation Yrotation Xrotation
                      JOINT RightHandMiddle3
                      {
                        OFFSET -4.348901 0.0 0.0
                        CHANNELS 3 Zrotation Yrotation Xrotation
                        JOINT RightHandMiddle4
                        {
                          OFFSET -3.00024 2e-06 -4e-06
                          CHANNELS 3 Zrotation Yrotation Xrotation
                          JOINT RightHandMiddleEnd
                          {
                            OFFSET -2.321477 -4e-06 -4e-06
                            CHANNELS 3 Zrotation Yrotation Xrotation
                          }
                        }
                      }
                    }
                  }
                  JOINT RightHandRing1
                  {
                    OFFSET -2.885654 0.293261 -0.119232
                    CHANNELS 3 Zrotation Yrotation Xrotation
                    JOINT RightHandRing2
                    {
                      OFFSET -6.032835 -1e-06 -4e-06
                      CHANNELS 3 Zrotation Yrotation Xrotation
                      JOINT RightHandRing3
                      {
                        OFFSET -4.33881 0.0 -4e-06
                        CHANNELS 3 Zrotation Yrotation Xrotation
                        JOINT RightHandRing4
                        {
                          OFFSET -2.654903 -4e-06 -4e-06
                          CHANNELS 3 Zrotation Yrotation Xrotation
                          JOINT RightHandRingEnd
                          {
                            OFFSET -1.935122 0.0 4e-06
                            CHANNELS 3 Zrotation Yrotation Xrotation
                          }
                        }
                      }
                    }
                  }
                  JOINT RightHandPinky1
                  {
                    OFFSET -2.866241 1.503904 -0.60527
                    CHANNELS 3 Zrotation Yrotation Xrotation
                    JOINT RightHandPinky2
                    {
                      OFFSET -5.553177 -2e-06 0.0
                      CHANNELS 3 Zrotation Yrotation Xrotation
                      JOINT RightHandPinky3
                      {
                        OFFSET -3.062664 -1e-06 -4e-06
                        CHANNELS 3 Zrotation Yrotation Xrotation
                        JOINT RightHandPinky4
                        {
                          OFFSET -1.546529 2e-06 4e-06
                          CHANNELS 3 Zrotation Yrotation Xrotation
                          JOINT RightHandPinkyEnd
                          {
                            OFFSET -1.952341 0.0 -4e-06
                            CHANNELS 3 Zrotation Yrotation Xrotation
                          }
                        }
                      }
                    }
                  }
                }
              }
            }
          }
        }
      }
    }
    JOINT LeftLeg
    {
      OFFSET -8.443107 2.567604 10.043214
      CHANNELS 3 Zrotation Yrotation Xrotation
      JOINT LeftShin
      {
        OFFSET 43.229198 1e-06 -1e-06
        CHANNELS 3 Zrotation Yrotation Xrotation
        JOINT LeftFoot
        {
          OFFSET 42.298611 1e-06 1e-06
          CHANNELS 3 Zrotation Yrotation Xrotation
          JOINT LeftToeBase
          {
            OFFSET 14.165858 1e-06 0.0
            CHANNELS 3 Zrotation Yrotation Xrotation
            JOINT LeftToeEnd
            {
              OFFSET 6.7141 -0.234461 0.0
              CHANNELS 3 Zrotation Yrotation Xrotation
            }
          }
        }
      }
    }
    JOINT RightLeg
    {
      OFFSET -8.303923 2.592729 -10.047278
      CHANNELS 3 Zrotation Yrotation Xrotation
      JOINT RightShin
      {
        OFFSET -43.369682 0.0 1e-06
        CHANNELS 3 Zrotation Yrotation Xrotation
        JOINT RightFoot
        {
          OFFSET -42.260784 4e-06 2e-06
          CHANNELS 3 Zrotation Yrotation Xrotation
          JOINT RightToeBase
          {
            OFFSET -14.222245 -2e-06 -1e-06
            CHANNELS 3 Zrotation Yrotation Xrotation
            JOINT RightToeEnd
            {
              OFFSET -6.660062 0.232574 -2e-06
              CHANNELS 3 Zrotation Yrotation Xrotation
            }
          }
        }
      }
    }
  }
}
MOTION
Frames: 4
Frame Time: 0.03333333333333333
0.0 0.0 0.0 0.0 -0.0 0.0 -0.267012 99.850021 -0.428862 89.872231 1.018927 93.113152 -1.528151 1.034625 0.024007 -11.233483 -0.268033 -0.341325 15.747916 -1.2674 -2.365225 25.455917 2.142133 2.338538 -2.641934 -0.657223 -0.999506 -33.819485 -0.819896 -1.232818 6e-06 -0.0 0.0 0.051453 0.012387 0.036392 0.109549 0.001714 0.036019 0.120282 0.021992 0.044396 -128.437683 -69.38446 145.11644 40.336311 -60.536991 -11.210384 21.275969 -0.509586 -0.167683 -3.504205 18.945032 8.262311 17.63656 -26.322626 52.410965 -19.466528 -14.395597 29.410246 9e-06 -8.774809 -0.0 15.964413 -18.385225 6.30654 -0.609775 -1.795642 -3.88931 -4.807087 -11.046747 -2.937823 -1.7e-05 -20.975891 2.1e-05 -5.019991 -25.033424 -4.031859 6e-06 4e-06 0.0 -10.634514 -5.686946 -3.565562 10.573232 -17.922842 -3.113873 -1.1e-05 -13.821138 1.5e-05 -0.501822 -31.181364 -4.026975 -11.322054 -59.309353 7.339477 -13.982686 -7.150168 -2.875015 13.772694 -8.401432 -3.218223 0.347681 -34.211357 0.771698 -0.963052 -17.733303 2.621027 0.0 1e-06 -0.0 -17.346395 -20.095119 -4.201739 21.757517 -1.638353 3.866413 -6e-06 -6.338793 7e-06 -1.69762 -22.591642 -6.193967 -0.0 -5e-06 -1e-06 57.025562 -72.895172 137.087936 32.344772 -66.104729 -3.098405 27.957869 -0.567788 -0.09206 1.44802 13.032659 18.079571 22.182068 -20.375832 49.933182 -16.701733 -16.743538 28.476444 1.9e-05 -12.690607 4e-06 15.37325 -17.761929 2.833466 -0.10592 -1.513849 -4.275871 -5.039044 -5.61286 -2.953542 -1.4e-05 -11.0205 6e-06 -6.111333 -15.895329 -3.840467 0.0 -0.0 -0.0 -10.283364 -5.680281 -4.341818 11.02827 -11.302357 -2.372622 -1.384293 -14.238546 -6.320105 -0.62547 -26.924147 -3.827603 -4.139165 -49.392288 -3.689894 -13.708518 -7.36347 -3.720917 18.141115 -14.052673 -3.24266 -2.6e-05 -18.787237 6e-06 -0.429725 -8.45604 2.555504 1e-06 -3e-06 3e-06 -15.92355 -20.094446 -5.473547 30.419197 -7.190763 1.73594 -9e-06 -8.162909 1e-06 -1.861946 -22.861465 -6.167946 1e-06 -5e-06 -1e-06 -175.395782 -2.400374 -10.559023 5.578184 0.008834 0.228147 -78.219109 -0.802158 -5.63589 -4.264586 1.499908 2.175361 -1.000001 0.0 -0.0 5.696724 -3.016136 -4.331856 5.529147 -0.030876 0.127812 -79.800011 0.219133 -6.720651 -4.267778 0.648519 1.69351 -1.000002 0.0 -0.0 
0.0 0.0 0.0 0.0 -0.0 0.0 -0.276727 99.844826 -0.422878 89.855186 1.043005 92.988304 -1.546391 1.022516 0.014617 -11.243663 -0.280012 -0.379323 15.799585 -1.24891 -2.398987 25.569223 2.265822 2.324018 -2.639465 -0.651572 -0.999169 -33.900749 -0.80998 -1.224553 6e-06 -0.0 0.0 0.053161 0.012842 0.036527 0.11427 0.003441 0.035367 0.122052 0.021237 0.045285 -128.470352 -69.36541 145.210449 40.381901 -60.605247 -11.245524 21.133974 -0.535665 -0.172386 -3.506292 18.861723 8.51 17.636536 -26.322557 52.410984 -19.466425 -14.395444 29.410183 0.0 -8.774727 -1.4e-05 15.949168 -18.379667 6.343753 -0.60978 -1.795636 -3.889306 -4.807043 -11.046691 -2.937843 1.3e-05 -20.975769 3e-06 -5.019874 -25.033255 -4.031869 6e-06 -2e-06 -0.0 -10.63445 -5.686916 -3.565587 10.573157 -17.922758 -3.113852 5e-06 -13.821053 1.2e-05 -0.501758 -31.181122 -4.026959 -11.329335 -59.371098 7.384662 -13.982602 -7.150134 -2.875054 13.772586 -8.401406 -3.218194 0.347726 -34.211132 0.771683 -0.963034 -17.733185 2.621032 1e-06 1e-06 -3e-06 -17.34626 -20.095032 -4.201801 21.757339 -1.638365 3.866426 4e-06 -6.338754 7e-06 -1.697549 -22.591471 -6.193954 -0.0 -4e-06 -3e-06 56.922215 -72.73555 137.278122 31.974564 -66.223183 -2.589216 27.842203 -0.560187 -0.082329 1.458842 12.932819 18.153526 22.182009 -20.375832 49.933105 -16.701611 -16.743383 28.476313 -2e-06 -12.69048 -1.4e-05 15.422166 -17.734438 2.816821 -0.105924 -1.513842 -4.275858 -5.039001 -5.612817 -2.953542 7e-06 -11.020427 1.1e-05 -6.111226 -15.895196 -3.840451 0.0 -0.0 -0.0 -10.283301 -5.680241 -4.341826 11.028193 -11.302304 -2.372589 -1.384255 -14.23844 -6.32007 -0.62543 -26.923933 -3.827546 -4.131154 -49.412498 -3.683049 -13.708428 -7.363417 -3.720938 18.140984 -14.052617 -3.242611 0.0 -18.787107 2.9e-05 -0.429714 -8.455986 2.555505 1e-06 1e-06 1e-06 -15.923415 -20.094313 -5.473574 30.418941 -7.190767 1.735948 3e-06 -8.162859 1.5e-05 -1.861884 -22.861279 -6.16786 0.0 -2e-06 -1e-06 -175.352524 -2.410199 -10.589437 5.57488 0.008124 0.225098 -78.212234 -0.889898 -5.653092 -4.240315 1.491654 2.173859 -0.999994 0.0 0.0 5.70143 -3.006157 -4.242427 5.52965 -0.031664 0.14018 -79.768356 0.261628 -6.702541 -4.259615 0.649738 1.69437 -1.0 0.0 0.0 
0.0 0.0 0.0 0.0 -0.0 0.0 -0.287949 99.842888 -0.409558 89.837891 1.065969 92.876274 -1.561438 1.012281 0.004684 -11.250315 -0.289414 -0.417114 15.84427 -1.241 -2.428365 25.668062 2.371546 2.310925 -2.645627 -0.644025 -0.991052 -33.970978 -0.800432 -1.226892 6e-06 -0.0 0.0 0.054519 0.014214 0.040275 0.112095 0.0074 0.038531 0.119126 0.019907 0.049632 -128.493942 -69.332039 145.265884 40.373299 -60.685226 -11.12517 21.042978 -0.534131 -0.17861 -3.549046 18.784597 8.717411 17.636681 -26.322863 52.411404 -19.46681 -14.395689 29.410589 -2e-06 -8.774897 3e-06 15.932367 -18.386372 6.391606 -0.609778 -1.795662 -3.889345 -4.807118 -11.046886 -2.937866 4e-06 -20.976217 1e-06 -5.020023 -25.033876 -4.031927 6e-06 -1e-06 -0.0 -10.634579 -5.686998 -3.565594 10.573344 -17.923077 -3.113929 3e-06 -13.82134 -0.0 -0.501769 -31.181946 -4.02707 -11.354651 -59.45845 7.449878 -13.982775 -7.150233 -2.875045 13.772817 -8.401546 -3.21827 0.347732 -34.211914 0.771663 -0.963044 -17.73361 2.621057 -1e-06 -0.0 -1e-06 -17.346506 -20.095318 -4.201783 21.757698 -1.638383 3.866441 0.0 -6.338885 1e-06 -1.697595 -22.592049 -6.194094 -0.0 -2e-06 -1e-06 56.868778 -72.59082 137.427292 31.618797 -66.368767 -2.101974 27.770739 -0.555071 -0.069025 1.475571 12.850412 18.25514 22.182184 -20.375917 49.933376 -16.701908 -16.743601 28.476618 -5e-06 -12.690682 -3e-06 15.44996 -17.707418 2.800389 -0.105918 -1.513863 -4.275891 -5.039062 -5.6129 -2.953562 7e-06 -11.020608 -5e-06 -6.111343 -15.8955 -3.840502 -0.0 -0.0 1e-06 -10.283407 -5.680308 -4.34184 11.028347 -11.302459 -2.372648 -1.384276 -14.238682 -6.320158 -0.625421 -26.924467 -3.827649 -4.115039 -49.422337 -3.676193 -13.708572 -7.363507 -3.72094 18.141243 -14.052811 -3.242699 1.6e-05 -18.787409 -1.9e-05 -0.429702 -8.45613 2.555512 0.0 -1e-06 2e-06 -15.923601 -20.094561 -5.473583 30.419353 -7.19086 1.735931 7e-06 -8.162978 -1.1e-05 -1.861887 -22.861696 -6.168023 -1e-06 -3e-06 1e-06 -175.307922 -2.422263 -10.636339 5.565336 0.007672 0.224889 -78.216713 -0.953949 -5.668514 -4.219225 1.483299 2.171542 -1.000003 -0.0 0.0 5.709334 -2.995593 -4.162696 5.531043 -0.031638 0.148894 -79.742378 0.285388 -6.66948 -4.238961 0.647752 1.693524 -1.000002 0.0 0.0 
0.0 0.0 0.0 0.0 -0.0 0.0 -0.295851 99.844994 -0.392601 89.821541 1.075994 92.780502 -1.574525 1.0026 -0.004261 -11.255544 -0.297095 -0.452242 15.875183 -1.240083 -2.454006 25.737051 2.446339 2.310907 -2.658769 -0.634461 -0.992366 -34.018021 -0.778377 -1.230718 6e-06 0.0 0.0 0.054101 0.015735 0.044689 0.106414 0.010795 0.042284 0.113732 0.019351 0.054803 -128.51857 -69.26339 145.314636 40.343594 -60.741295 -10.964465 20.978054 -0.527124 -0.178559 -3.596837 18.742176 8.832019 17.636559 -26.322632 52.411167 -19.46653 -14.395514 29.410324 2e-06 -8.774776 -1e-05 15.915492 -18.389681 6.420217 -0.609779 -1.795644 -3.88932 -4.807071 -11.046741 -2.937854 6e-06 -20.975887 -8e-06 -5.019914 -25.033428 -4.031906 6e-06 2e-06 0.0 -10.634492 -5.686946 -3.565593 10.573203 -17.922829 -3.113876 3e-06 -13.821124 3e-06 -0.50175 -31.181337 -4.027015 -11.365543 -59.50211 7.498988 -13.982655 -7.150169 -2.875055 13.772651 -8.401438 -3.218216 0.347728 -34.211338 0.771663 -0.963035 -17.733297 2.621032 1e-06 0.0 -1e-06 -17.346334 -20.095112 -4.201808 21.757441 -1.638361 3.866436 1e-06 -6.338787 6e-06 -1.697562 -22.591631 -6.19401 -1e-06 -4e-06 -3e-06 56.818092 -72.458771 137.578461 31.299755 -66.508247 -1.679424 27.728464 -0.54774 -0.05081 1.490301 12.774256 18.286831 22.182001 -20.375811 49.933216 -16.701641 -16.743418 28.476398 1e-05 -12.690504 -2e-06 15.459763 -17.687143 2.781511 -0.105928 -1.513843 -4.275866 -5.039016 -5.612833 -2.953548 -7e-06 -11.020434 -3e-06 -6.111251 -15.895224 -3.840482 0.0 -0.0 -1e-06 -10.283323 -5.680261 -4.341835 11.028204 -11.302304 -2.372606 -1.384267 -14.238463 -6.320107 -0.625427 -26.923967 -3.827609 -4.08384 -49.418442 -3.688244 -13.708454 -7.363439 -3.720937 18.141003 -14.052608 -3.242636 -1.4e-05 -18.787113 9e-06 -0.429721 -8.455981 2.555503 0.0 1e-06 -1e-06 -15.923457 -20.094362 -5.473586 30.418989 -7.19074 1.735942 -6e-06 -8.162863 1e-05 -1.861905 -22.861288 -6.167897 -1e-06 -0.0 -1e-06 -175.273117 -2.43657 -10.698743 5.550165 0.008622 0.227116 -78.228004 -0.969056 -5.685372 -4.204174 1.476606 2.17005 -0.999999 0.0 -0.0 5.706149 -2.984997 -4.090294 5.531615 -0.03088 0.152266 -79.728355 0.29788 -6.63756 -4.216448 0.641301 1.69105 -1.000005 0.0 0.0 
